<?xml version="1.0" encoding="UTF-8"?><svg id="Layer_1" xmlns="http://www.w3.org/2000/svg" viewBox="0 0 335.14 295.37"><defs><style>.cls-1{fill:#14bbb8;}.cls-1,.cls-2,.cls-3{stroke-width:0px;}.cls-2{fill:#122e4e;}.cls-3{fill:#64cdf5;}</style></defs><path class="cls-3" d="m167.45,193.41h-56.08c-1.55,0-2.43-1.05-2.8-1.68-.78-1.3-.82-2.87-.11-4.22l7.46-14.04,2.18-4.09c2.76-5.19,5.87-12.49,7.57-21.25,0-.02.01-.05.01-.08.01-.07.04-.14.05-.22.74-3.93,1.2-8.16,1.21-12.62l1.33-19.65c0-.09.01-.21.01-.32,0-13.42,4.64-24.57,13.07-31.42,7.15-5.81,16.55-8.9,26.09-8.95v118.53Z"/><path class="cls-1" d="m167.45,193.41v-118.53c4.79,0,9.89.78,14.49,2.36,16.96,5.84,22.3,18.89,23.96,26.15.73,3.13.92,6.36,1.12,9.76.05.8.09,1.6.15,2.41l1.31,19.65c.01,4.53.48,8.83,1.26,12.82,1.68,8.82,4.83,16.15,7.6,21.36l2.08,3.92.06.11.05.09v.02s7.43,13.98,7.43,13.98c.72,1.34.68,2.92-.11,4.22-.38.64-1.25,1.68-2.8,1.68h-56.6Z"/><path class="cls-3" d="m63.11,277.42c0,9.89-8.06,17.95-17.96,17.95s-17.95-8.06-17.95-17.95,8.06-17.95,17.95-17.95c4.14,0,7.95,1.4,10.99,3.77l-3.87,3.01-4.09,3.2c-.94-.37-1.97-.56-3.02-.56-4.7,0-8.53,3.83-8.53,8.53s3.83,8.53,8.53,8.53,8.54-3.83,8.54-8.53c0-.11,0-.2,0-.31l4.22-3.3,3.92-3.06c.84,2.06,1.29,4.31,1.29,6.67Z"/><path class="cls-2" d="m317.19,197.84c-1.17,0-2.28.24-3.3.66l-4.37-2.92-4.11-2.75-21.61-14.44c-1.87-1.26-3.09-3.87-3.09-6.64v-12.57c0-9.28-6.67-16.82-14.86-16.82h-47.48c-.3-2.35-.47-4.8-.47-7.32v-.32l-.48-7.11h48.43c8.2,0,14.86-7.55,14.86-16.81v-12.57c0-2.79,1.22-5.39,3.09-6.65l19.98-13.36,4.14-2.76,4.48-3c.89.33,1.86.51,2.87.51,4.69,0,8.53-3.83,8.53-8.54s-3.83-8.53-8.53-8.53-8.53,3.83-8.53,8.53c0,.15,0,.31.02.46l-4.31,2.88-4.08,2.74-19.8,13.24c-4.5,3-7.28,8.54-7.28,14.48v12.57c0,4-2.49,7.39-5.44,7.39h-49.06l-.23-3.26c-.06-.8-.11-1.57-.14-2.35-.18-2.97-.37-6.01-.91-9.13h33.35c4.22,0,7.98-2.62,9.76-6.82,2.02-4.75,1.07-10.34-2.37-13.91l-19.1-19.79c-1.2-1.24-1.48-3.59-.62-5.33l10.84-21.99,2.2-4.48,2.36-4.82c4-.68,7.06-4.18,7.06-8.38,0-4.7-3.83-8.53-8.53-8.53s-8.53,3.83-8.53,8.53c0,1.7.5,3.27,1.36,4.61l-2.3,4.65-2.15,4.39-10.77,21.84c-2.62,5.33-1.67,11.93,2.31,16.06l19.08,19.78c.97,1.01.93,2.62.48,3.69-.11.25-.5,1.08-1.08,1.08h-36.08c-4.74-11.58-13.98-20.49-26.26-25.16.43-.71.67-1.52.67-2.39,0-2.54-.45-4.97-1.28-7.21,3.17-2.49,5.23-6.9,5.23-12.04v-2.49c0-2.6-2.11-4.71-4.71-4.71s-4.71,2.11-4.71,4.71v2.49c0,1.9-.57,3.26-1.09,4.03-3.44-3.2-7.97-5.14-12.93-5.14s-9.45,1.93-12.9,5.11c-.52-.76-1.06-2.12-1.06-4v-2.49c0-2.6-2.11-4.71-4.72-4.71s-4.71,2.11-4.71,4.71v2.49c0,5.12,2.04,9.52,5.19,12-.84,2.25-1.29,4.69-1.29,7.25,0,.87.24,1.68.67,2.39-4.89,1.83-9.46,4.39-13.47,7.64-5.62,4.56-9.91,10.52-12.71,17.53h-36.16c-.58,0-.97-.83-1.08-1.08-.45-1.06-.5-2.68.48-3.69l19.1-19.78c3.97-4.13,4.92-10.72,2.3-16.06l-10.86-22.04-2.19-4.44-2.32-4.72c.75-1.27,1.17-2.72,1.17-4.29,0-4.7-3.83-8.53-8.54-8.53s-8.52,3.83-8.52,8.53c0,4.33,3.25,7.91,7.43,8.45l2.33,4.74,2.18,4.43,10.87,22.04c.85,1.74.58,4.09-.63,5.33l-19.1,19.79c-3.44,3.57-4.39,9.15-2.37,13.91,1.8,4.21,5.53,6.82,9.76,6.82h33.41c-.72,3.7-1.1,7.58-1.1,11.62l-.21,3.11h-49.08c-2.95,0-5.43-3.39-5.43-7.39v-12.57c0-5.94-2.79-11.49-7.28-14.48l-19.55-13.08-4.06-2.71-4.26-2.86c.02-.23.03-.45.03-.67,0-4.69-3.83-8.53-8.54-8.53s-8.53,3.83-8.53,8.53,3.83,8.54,8.53,8.54c.93,0,1.82-.15,2.66-.44l4.52,3.03,4.16,2.78,19.8,13.24c1.88,1.26,3.09,3.87,3.09,6.65v12.57c0,9.27,6.67,16.81,14.86,16.81h48.45l-.49,7.11c0,.11,0,.21,0,.32,0,2.52-.17,4.97-.47,7.32h-47.48c-8.19,0-14.86,7.54-14.86,16.82v12.57c0,2.78-1.21,5.39-3.09,6.64l-21.76,14.55-4.09,2.73-4.35,2.91c-1.06-.48-2.23-.74-3.45-.74-4.71,0-8.54,3.83-8.54,8.54s3.83,8.53,8.54,8.53,8.45-3.74,8.51-8.37l4.42-2.96,4.13-2.75,21.82-14.6c4.49-3.01,7.28-8.55,7.28-14.47v-12.57c0-4.02,2.49-7.4,5.43-7.4h45.55c-1.52,5.26-3.53,9.74-5.34,13.17l-.83,1.56h-12.52c-5.29,0-10.26,2.34-14,6.58-4.49,5.09-6.62,12.42-5.72,19.59l5.62,44.57c.37,3.02-.71,6.08-2.7,7.64l-23.5,18.36-3.87,3.01-4.09,3.2c-.94-.37-1.97-.56-3.02-.56-4.7,0-8.53,3.83-8.53,8.53s3.83,8.53,8.53,8.53,8.54-3.83,8.54-8.53c0-.11,0-.2,0-.31l4.22-3.3,3.92-3.06,23.61-18.44c4.67-3.64,7.06-9.86,6.25-16.24l-5.63-44.57c-.56-4.53.72-9.1,3.44-12.18,1.93-2.18,4.39-3.39,6.94-3.39h7.51l-3.81,7.16c-2.27,4.29-2.14,9.33.36,13.49,2.36,3.92,6.43,6.25,10.88,6.25h31.99c1.59,12.76,11.9,22.61,24.38,22.61s22.78-9.85,24.38-22.61h31.93c4.47,0,8.53-2.33,10.88-6.25,2.5-4.16,2.63-9.2.36-13.49l-3.81-7.16h7.51c2.54,0,5.02,1.21,6.94,3.39,2.72,3.09,4,7.65,3.44,12.18l-5.63,44.57c-.8,6.38,1.58,12.61,6.25,16.24l23.53,18.38,3.92,3.06,4.22,3.28c-.02.13-.02.25-.02.38,0,4.69,3.83,8.53,8.53,8.53s8.54-3.83,8.54-8.53-3.83-8.53-8.54-8.53c-1.03,0-2.04.19-2.96.54l-4.09-3.22-3.88-3.01-23.43-18.32c-2.01-1.55-3.09-4.61-2.71-7.64l5.63-44.57c.89-7.17-1.23-14.5-5.73-19.59-3.73-4.24-8.72-6.58-14-6.58h-12.51l-.82-1.56c-1.83-3.43-3.83-7.9-5.34-13.17h45.53c2.95,0,5.44,3.38,5.44,7.4v12.57c0,5.92,2.78,11.47,7.28,14.47l21.59,14.44,4.12,2.75,4.37,2.93v.03c0,4.7,3.83,8.53,8.54,8.53s8.53-3.83,8.53-8.53-3.83-8.54-8.53-8.54Zm-90.22-10.33c.71,1.35.68,2.92-.11,4.22-.37.64-1.24,1.69-2.8,1.69h-112.67c-1.56,0-2.43-1.05-2.8-1.69-.78-1.29-.83-2.87-.11-4.22l7.46-14.04,2.18-4.09c2.75-5.19,5.86-12.48,7.57-21.25,0-.02.02-.05.02-.08,0-.07.03-.14.05-.22.74-3.94,1.19-8.16,1.21-12.62l1.33-19.64c0-.1,0-.22,0-.32,0-13.41,4.65-24.57,13.08-31.41,7.15-5.81,16.55-8.91,26.09-8.95,2.4,0,4.87.19,7.32.58,2.44.39,4.87.97,7.17,1.77,16.96,5.84,22.3,18.89,23.96,26.15.72,3.14.92,6.36,1.11,9.76.05.8.1,1.6.15,2.42l1.31,19.64c.02,4.54.49,8.84,1.26,12.82,1.69,8.82,4.83,16.15,7.6,21.35l2.08,3.92.06.11.04.1.02.02,7.42,13.98Z"/><path class="cls-1" d="m268.42,17.95c0,9.9-8.06,17.95-17.95,17.95-1.06,0-2.09-.1-3.09-.28l2.2-4.48,2.36-4.82c4-.68,7.06-4.18,7.06-8.38,0-4.7-3.83-8.53-8.53-8.53s-8.53,3.83-8.53,8.53c0,1.7.5,3.27,1.36,4.61l-2.3,4.65-2.15,4.39c-3.87-3.27-6.33-8.18-6.33-13.65,0-9.89,8.04-17.95,17.95-17.95s17.95,8.06,17.95,17.95Z"/><path class="cls-1" d="m335.14,206.38c0,9.9-8.06,17.96-17.95,17.96s-17.97-8.06-17.97-17.96c0-1.99.33-3.91.94-5.71l4.12,2.75,4.37,2.93v.03c0,4.7,3.83,8.53,8.54,8.53s8.53-3.83,8.53-8.53-3.83-8.54-8.53-8.54c-1.17,0-2.28.24-3.3.66l-4.37-2.92-4.11-2.75c3.15-2.76,7.28-4.42,11.78-4.42,9.89,0,17.95,8.06,17.95,17.96Z"/><path class="cls-1" d="m333.22,64.43c0,9.91-8.06,17.97-17.95,17.97-4.37,0-8.37-1.57-11.49-4.18l4.14-2.76,4.48-3c.89.33,1.86.51,2.87.51,4.69,0,8.53-3.83,8.53-8.54s-3.83-8.53-8.53-8.53-8.53,3.83-8.53,8.53c0,.15,0,.31.02.46l-4.31,2.88-4.08,2.74c-.68-1.9-1.06-3.95-1.06-6.08,0-9.89,8.04-17.95,17.95-17.95s17.95,8.06,17.95,17.95Z"/><path class="cls-1" d="m308.13,277.42c0,9.89-8.06,17.95-17.97,17.95s-17.95-8.06-17.95-17.95c0-2.38.46-4.65,1.31-6.73l3.92,3.06,4.22,3.28c-.02.13-.02.25-.02.38,0,4.69,3.83,8.53,8.53,8.53s8.54-3.83,8.54-8.53-3.83-8.53-8.54-8.53c-1.03,0-2.04.19-2.96.54l-4.09-3.22-3.88-3.01c3.03-2.34,6.82-3.73,10.93-3.73,9.91,0,17.97,8.04,17.97,17.95Z"/><path class="cls-3" d="m102.56,17.95c0,5.34-2.36,10.16-6.08,13.45l-2.19-4.44-2.32-4.72c.75-1.27,1.17-2.72,1.17-4.29,0-4.7-3.83-8.53-8.54-8.53s-8.52,3.83-8.52,8.53c0,4.33,3.25,7.91,7.43,8.45l2.33,4.74,2.18,4.43c-1.1.21-2.26.33-3.43.33-9.89,0-17.95-8.05-17.95-17.95S74.7,0,84.6,0s17.97,8.06,17.97,17.95Z"/><path class="cls-3" d="m35.92,206.38c0,9.9-8.06,17.96-17.95,17.96S0,216.28,0,206.38s8.06-17.96,17.97-17.96c4.56,0,8.72,1.71,11.89,4.52l-4.09,2.73-4.35,2.91c-1.06-.48-2.23-.74-3.45-.74-4.71,0-8.54,3.83-8.54,8.54s3.83,8.53,8.54,8.53,8.45-3.74,8.51-8.37l4.42-2.96,4.13-2.75c.58,1.75.89,3.61.89,5.56Z"/><path class="cls-3" d="m38.44,64.43c0,2.19-.4,4.31-1.13,6.25l-4.06-2.71-4.26-2.86c.02-.23.03-.45.03-.67,0-4.69-3.83-8.53-8.54-8.53s-8.53,3.83-8.53,8.53,3.83,8.54,8.53,8.54c.93,0,1.82-.15,2.66-.44l4.52,3.03,4.16,2.78c-3.09,2.53-7.06,4.05-11.34,4.05-9.9,0-17.95-8.06-17.95-17.97s8.05-17.95,17.95-17.95,17.96,8.06,17.96,17.95Z"/></svg>