<?xml version="1.0" encoding="UTF-8"?><svg id="Layer_1" xmlns="http://www.w3.org/2000/svg" viewBox="0 0 338.15 64.72"><defs><style>.cls-1{fill:#14bbb8;}.cls-1,.cls-2,.cls-3{stroke-width:0px;}.cls-2{fill:#122e4e;}.cls-3{fill:#64cdf5;}</style></defs><path class="cls-3" d="m36.69,42.38h-12.29c-.34,0-.53-.23-.61-.37-.17-.28-.18-.63-.02-.92l1.63-3.08.48-.9c.6-1.14,1.29-2.74,1.66-4.66,0,0,0-.01,0-.02,0-.02,0-.03.01-.05.16-.86.26-1.79.27-2.76l.29-4.3s0-.05,0-.07c0-2.94,1.02-5.38,2.86-6.88,1.57-1.27,3.63-1.95,5.72-1.96v25.97Z"/><path class="cls-1" d="m36.69,42.38v-25.97c1.05,0,2.17.17,3.17.52,3.72,1.28,4.89,4.14,5.25,5.73.16.69.2,1.39.25,2.14.01.18.02.35.03.53l.29,4.3c0,.99.11,1.94.28,2.81.37,1.93,1.06,3.54,1.66,4.68l.46.86v.02s.02.02.02.02h0s1.63,3.07,1.63,3.07c.16.29.15.64-.02.92-.08.14-.27.37-.61.37h-12.4Z"/><path class="cls-3" d="m13.83,60.78c0,2.17-1.77,3.93-3.93,3.93s-3.93-1.77-3.93-3.93,1.77-3.93,3.93-3.93c.91,0,1.74.31,2.41.83l-.85.66-.9.7c-.21-.08-.43-.12-.66-.12-1.03,0-1.87.84-1.87,1.87s.84,1.87,1.87,1.87,1.87-.84,1.87-1.87c0-.02,0-.04,0-.07l.92-.72.86-.67c.18.45.28.94.28,1.46Z"/><path class="cls-2" d="m69.5,43.35c-.26,0-.5.05-.72.14l-.96-.64-.9-.6-4.73-3.16c-.41-.28-.68-.85-.68-1.46v-2.75c0-2.03-1.46-3.69-3.26-3.69h-10.4c-.07-.51-.1-1.05-.1-1.6v-.07l-.11-1.56h10.61c1.8,0,3.26-1.65,3.26-3.68v-2.75c0-.61.27-1.18.68-1.46l4.38-2.93.91-.61.98-.66c.2.07.41.11.63.11,1.03,0,1.87-.84,1.87-1.87s-.84-1.87-1.87-1.87-1.87.84-1.87,1.87c0,.03,0,.07,0,.1l-.94.63-.89.6-4.34,2.9c-.99.66-1.59,1.87-1.59,3.17v2.75c0,.88-.55,1.62-1.19,1.62h-10.75l-.05-.71c-.01-.17-.02-.34-.03-.51-.04-.65-.08-1.32-.2-2h7.31c.93,0,1.75-.57,2.14-1.49.44-1.04.23-2.27-.52-3.05l-4.18-4.34c-.26-.27-.32-.79-.14-1.17l2.37-4.82.48-.98.52-1.06c.88-.15,1.55-.92,1.55-1.84,0-1.03-.84-1.87-1.87-1.87s-1.87.84-1.87,1.87c0,.37.11.72.3,1.01l-.5,1.02-.47.96-2.36,4.79c-.57,1.17-.37,2.61.51,3.52l4.18,4.33c.21.22.2.57.11.81-.02.06-.11.24-.24.24h-7.91c-1.04-2.54-3.06-4.49-5.75-5.51.09-.15.15-.33.15-.52,0-.56-.1-1.09-.28-1.58.69-.54,1.15-1.51,1.15-2.64v-.54c0-.57-.46-1.03-1.03-1.03s-1.03.46-1.03,1.03v.54c0,.42-.12.72-.24.88-.75-.7-1.75-1.13-2.83-1.13s-2.07.42-2.83,1.12c-.11-.17-.23-.46-.23-.88v-.54c0-.57-.46-1.03-1.03-1.03s-1.03.46-1.03,1.03v.54c0,1.12.45,2.09,1.14,2.63-.18.49-.28,1.03-.28,1.59,0,.19.05.37.15.52-1.07.4-2.07.96-2.95,1.67-1.23,1-2.17,2.3-2.79,3.84h-7.92c-.13,0-.21-.18-.24-.24-.1-.23-.11-.59.1-.81l4.18-4.33c.87-.9,1.08-2.35.5-3.52l-2.38-4.83-.48-.97-.51-1.03c.16-.28.26-.6.26-.94,0-1.03-.84-1.87-1.87-1.87s-1.87.84-1.87,1.87c0,.95.71,1.73,1.63,1.85l.51,1.04.48.97,2.38,4.83c.19.38.13.9-.14,1.17l-4.18,4.34c-.75.78-.96,2.01-.52,3.05.39.92,1.21,1.49,2.14,1.49h7.32c-.16.81-.24,1.66-.24,2.55l-.05.68h-10.75c-.65,0-1.19-.74-1.19-1.62v-2.75c0-1.3-.61-2.52-1.59-3.17l-4.28-2.87-.89-.59-.93-.63s0-.1,0-.15c0-1.03-.84-1.87-1.87-1.87s-1.87.84-1.87,1.87.84,1.87,1.87,1.87c.2,0,.4-.03.58-.1l.99.66.91.61,4.34,2.9c.41.28.68.85.68,1.46v2.75c0,2.03,1.46,3.68,3.25,3.68h10.62l-.11,1.56s0,.05,0,.07c0,.55-.04,1.09-.1,1.6h-10.4c-1.79,0-3.25,1.65-3.25,3.69v2.75c0,.61-.27,1.18-.68,1.46l-4.77,3.19-.9.6-.95.64c-.23-.1-.49-.16-.76-.16-1.03,0-1.87.84-1.87,1.87s.84,1.87,1.87,1.87,1.85-.82,1.87-1.83l.97-.65.91-.6,4.78-3.2c.98-.66,1.59-1.87,1.59-3.17v-2.75c0-.88.54-1.62,1.19-1.62h9.98c-.33,1.15-.77,2.13-1.17,2.88l-.18.34h-2.74c-1.16,0-2.25.51-3.07,1.44-.98,1.12-1.45,2.72-1.25,4.29l1.23,9.76c.08.66-.15,1.33-.59,1.67l-5.15,4.02-.85.66-.9.7c-.21-.08-.43-.12-.66-.12-1.03,0-1.87.84-1.87,1.87s.84,1.87,1.87,1.87,1.87-.84,1.87-1.87c0-.02,0-.04,0-.07l.92-.72.86-.67,5.17-4.04c1.02-.8,1.55-2.16,1.37-3.56l-1.23-9.76c-.12-.99.16-1.99.75-2.67.42-.48.96-.74,1.52-.74h1.64l-.83,1.57c-.5.94-.47,2.04.08,2.96.52.86,1.41,1.37,2.38,1.37h7.01c.35,2.8,2.61,4.95,5.34,4.95s4.99-2.16,5.34-4.95h7c.98,0,1.87-.51,2.38-1.37.55-.91.58-2.02.08-2.96l-.83-1.57h1.64c.56,0,1.1.27,1.52.74.6.68.88,1.68.75,2.67l-1.23,9.76c-.18,1.4.35,2.76,1.37,3.56l5.16,4.03.86.67.92.72s0,.06,0,.08c0,1.03.84,1.87,1.87,1.87s1.87-.84,1.87-1.87-.84-1.87-1.87-1.87c-.23,0-.45.04-.65.12l-.9-.7-.85-.66-5.13-4.01c-.44-.34-.68-1.01-.59-1.67l1.23-9.76c.2-1.57-.27-3.18-1.25-4.29-.82-.93-1.91-1.44-3.07-1.44h-2.74l-.18-.34c-.4-.75-.84-1.73-1.17-2.88h9.98c.65,0,1.19.74,1.19,1.62v2.75c0,1.3.61,2.51,1.59,3.17l4.73,3.16.9.6.96.64h0c0,1.04.84,1.88,1.87,1.88s1.87-.84,1.87-1.87-.84-1.87-1.87-1.87Zm-19.77-2.26c.16.3.15.64-.02.92-.08.14-.27.37-.61.37h-24.69c-.34,0-.53-.23-.61-.37-.17-.28-.18-.63-.02-.92l1.63-3.08.48-.9c.6-1.14,1.28-2.74,1.66-4.66,0,0,0-.01,0-.02,0-.02,0-.03.01-.05.16-.86.26-1.79.27-2.77l.29-4.3s0-.05,0-.07c0-2.94,1.02-5.38,2.87-6.88,1.57-1.27,3.63-1.95,5.72-1.96.52,0,1.07.04,1.6.13.54.09,1.07.21,1.57.39,3.72,1.28,4.89,4.14,5.25,5.73.16.69.2,1.39.24,2.14.01.18.02.35.03.53l.29,4.3c0,.99.11,1.94.28,2.81.37,1.93,1.06,3.54,1.67,4.68l.46.86v.02s.02.02.02.02h0s1.63,3.07,1.63,3.07Z"/><path class="cls-1" d="m58.81,3.93c0,2.17-1.77,3.93-3.93,3.93-.23,0-.46-.02-.68-.06l.48-.98.52-1.06c.88-.15,1.55-.92,1.55-1.84,0-1.03-.84-1.87-1.87-1.87s-1.87.84-1.87,1.87c0,.37.11.72.3,1.01l-.5,1.02-.47.96c-.85-.72-1.39-1.79-1.39-2.99,0-2.17,1.76-3.93,3.93-3.93s3.93,1.77,3.93,3.93Z"/><path class="cls-1" d="m73.43,45.22c0,2.17-1.77,3.93-3.93,3.93s-3.94-1.77-3.94-3.93c0-.44.07-.86.21-1.25l.9.6.96.64h0c0,1.04.84,1.88,1.87,1.88s1.87-.84,1.87-1.87-.84-1.87-1.87-1.87c-.26,0-.5.05-.72.14l-.96-.64-.9-.6c.69-.61,1.59-.97,2.58-.97,2.17,0,3.93,1.77,3.93,3.93Z"/><path class="cls-1" d="m73.01,14.12c0,2.17-1.77,3.94-3.93,3.94-.96,0-1.83-.34-2.52-.91l.91-.61.98-.66c.2.07.41.11.63.11,1.03,0,1.87-.84,1.87-1.87s-.84-1.87-1.87-1.87-1.87.84-1.87,1.87c0,.03,0,.07,0,.1l-.94.63-.89.6c-.15-.42-.23-.86-.23-1.33,0-2.17,1.76-3.93,3.93-3.93s3.93,1.77,3.93,3.93Z"/><path class="cls-1" d="m67.51,60.78c0,2.17-1.77,3.93-3.94,3.93s-3.93-1.77-3.93-3.93c0-.52.1-1.02.29-1.47l.86.67.92.72s0,.06,0,.08c0,1.03.84,1.87,1.87,1.87s1.87-.84,1.87-1.87-.84-1.87-1.87-1.87c-.23,0-.45.04-.65.12l-.9-.7-.85-.66c.66-.51,1.49-.82,2.4-.82,2.17,0,3.94,1.76,3.94,3.93Z"/><path class="cls-3" d="m22.47,3.93c0,1.17-.52,2.23-1.33,2.95l-.48-.97-.51-1.03c.16-.28.26-.6.26-.94,0-1.03-.84-1.87-1.87-1.87s-1.87.84-1.87,1.87c0,.95.71,1.73,1.63,1.85l.51,1.04.48.97c-.24.05-.49.07-.75.07-2.17,0-3.93-1.76-3.93-3.93s1.77-3.93,3.93-3.93,3.94,1.77,3.94,3.93Z"/><path class="cls-3" d="m7.87,45.22c0,2.17-1.77,3.93-3.93,3.93s-3.94-1.77-3.94-3.93,1.77-3.93,3.94-3.93c1,0,1.91.37,2.61.99l-.9.6-.95.64c-.23-.1-.49-.16-.76-.16-1.03,0-1.87.84-1.87,1.87s.84,1.87,1.87,1.87,1.85-.82,1.87-1.83l.97-.65.91-.6c.13.38.19.79.19,1.22Z"/><path class="cls-3" d="m8.42,14.12c0,.48-.09.94-.25,1.37l-.89-.59-.93-.63s0-.1,0-.15c0-1.03-.84-1.87-1.87-1.87s-1.87.84-1.87,1.87.84,1.87,1.87,1.87c.2,0,.4-.03.58-.1l.99.66.91.61c-.68.56-1.55.89-2.48.89-2.17,0-3.93-1.77-3.93-3.94s1.76-3.93,3.93-3.93,3.93,1.77,3.93,3.93Z"/><path class="cls-3" d="m281.48,24.73c-1.41-2.5-2.06-3.71-2.62-4.87-.51,1.16-1.16,2.35-2.57,4.85l-2.59,4.61c-.58,1.04-1.46,1.72-2.76,1.72s-2.38-.73-2.81-2.23l-4.12-14.26h5.02l1.53,5.65c.51,1.82.85,3.15,1.09,4.46.53-1.14,1.16-2.38,2.28-4.49l2.18-4.07c.85-1.6,1.67-1.82,2.86-1.82s2.06.22,2.91,1.82l2.16,4.1c1.21,2.23,1.77,3.37,2.28,4.46.27-1.29.63-2.67,1.12-4.46l1.53-5.65h4.9l-4.2,14.26c-.44,1.5-1.55,2.23-2.81,2.23s-2.16-.65-2.76-1.72l-2.59-4.58Z"/><path class="cls-1" d="m316.58,33.95l7.56,10.77,7.88-10.77h6.13l-10.75,14.67c-.73.95-1.76,1.82-3.36,1.82s-2.59-.8-3.31-1.82l-10.52-14.67h6.38Z"/><path class="cls-1" d="m286.57,41.9c0-4.68-4.24-7.95-10.12-7.95h-11.25v16.22h11.25c5.88,0,10.12-3.27,10.12-7.95,0-.05,0-.1,0-.16,0-.05,0-.1,0-.16Zm-16.15,2.16v-5.89h6.03c2.79,0,4.93,1.64,4.97,3.89-.04,2.25-2.18,3.89-4.97,3.89h-6.03v-1.89Z"/><polygon class="cls-3" points="312.59 26.6 302.01 26.6 302.01 24.39 312.59 24.39 312.59 20.71 302.01 20.71 302.01 18.77 312.51 18.77 312.59 18.67 312.59 14.55 296.97 14.55 296.97 30.77 312.59 30.77 312.59 26.6"/><path class="cls-3" d="m336.18,22.66c1.13-.56,1.97-1.72,1.97-3.38,0-2.69-1.48-4.73-6.6-4.73h-14.26v16.22h14.26c5.12,0,6.6-2.04,6.6-4.73,0-1.66-.84-2.83-1.97-3.38Zm-13.84-3.89h9.31c.7,0,1.41.24,1.41,1.04s-.68,1.09-1.41,1.09h-9.31v-2.13Zm0,5.65h9.31c.73,0,1.41.27,1.41,1.09s-.7,1.04-1.41,1.04h-9.31v-2.13Z"/><polygon class="cls-1" points="306.63 46 295.69 46 295.69 43.79 306.63 43.79 306.63 40.11 295.69 40.11 295.69 38.17 306.56 38.17 306.63 38.07 306.63 33.95 290.46 33.95 290.46 50.17 306.63 50.17 306.63 46"/><path class="cls-2" d="m131.96,31.75c3.17.97,5.54,3.71,5.54,7.9,0,6.08-3.28,10.59-15.07,10.59h-32.15V14.28h31.88c.31,0,.62,0,.92.01,2.01.05,3.85.3,5.48.72.02,0,.04.01.06.02,5.06,1.31,8.11,4.4,8.11,9.25,0,4.25-2.26,6.51-4.79,7.47Zm-9.46-7.15h-19.74v3.44h19.53c1.98,0,2.79-.54,2.79-1.67,0-1.29-.81-1.77-2.57-1.77Zm-.22,11.88h-19.53v3.44h19.74c1.76,0,2.57-.48,2.57-1.77,0-1.13-.81-1.67-2.79-1.67Z"/><polygon class="cls-2" points="197.91 39.93 197.91 14.28 185.49 14.28 185.49 50.25 217.21 50.25 217.21 39.93 197.91 39.93"/><polygon class="cls-2" points="237.41 39.93 237.41 14.28 224.99 14.28 224.99 50.25 256.72 50.25 256.72 39.93 237.41 39.93"/><polygon class="cls-2" points="155.56 39.93 155.56 36.54 177.71 36.54 177.71 27.78 155.56 27.78 155.56 24.77 177.55 24.77 177.71 24.56 177.71 14.28 143.09 14.28 143.09 50.25 177.71 50.25 177.71 39.93 155.56 39.93"/></svg>