<svg width="33" height="33" viewBox="0 0 33 33" fill="none" xmlns="http://www.w3.org/2000/svg">
<path fill-rule="evenodd" clip-rule="evenodd" d="M16.7116 2.72234C9.31261 2.72234 3.30762 8.69567 3.30762 16.0557C3.30762 23.4157 9.31261 29.389 16.7116 29.389C24.1106 29.389 30.1156 23.4157 30.1156 16.0557C30.1156 8.69567 24.1106 2.72234 16.7116 2.72234ZM13.0791 21.7757L8.2671 16.989C7.74434 16.469 7.74434 15.629 8.2671 15.109C8.78986 14.589 9.63431 14.589 10.1571 15.109L14.0308 18.949L23.2528 9.77567C23.7755 9.25567 24.62 9.25567 25.1427 9.77567C25.6655 10.2957 25.6655 11.1357 25.1427 11.6557L14.9691 21.7757C14.4598 22.2957 13.6019 22.2957 13.0791 21.7757Z" fill="white"/>
</svg>
