<svg width="50" height="50" viewBox="0 0 50 50" fill="none" xmlns="http://www.w3.org/2000/svg">
<path fill-rule="evenodd" clip-rule="evenodd" d="M29.2497 14.7917C28.7082 14.7917 28.1889 15.0068 27.806 15.3897C27.4231 15.7726 27.208 16.2919 27.208 16.8334V33.1667C27.208 33.7082 27.4231 34.2275 27.806 34.6104C28.1889 34.9932 28.7082 35.2084 29.2497 35.2084H37.4163C37.9578 35.2084 38.4771 34.9932 38.86 34.6104C39.2429 34.2275 39.458 33.7082 39.458 33.1667V16.8334C39.458 16.2919 39.2429 15.7726 38.86 15.3897C38.4771 15.0068 37.9578 14.7917 37.4163 14.7917H29.2497ZM35.3747 18.875H31.2913V31.125H35.3747V18.875Z" fill="#14BBB8"/>
<path d="M12.9167 14.7917C12.3752 14.7917 11.8559 15.0068 11.473 15.3897C11.0901 15.7726 10.875 16.2919 10.875 16.8334C10.875 17.3748 11.0901 17.8941 11.473 18.277C11.8559 18.6599 12.3752 18.875 12.9167 18.875H21.0833C21.6248 18.875 22.1441 18.6599 22.527 18.277C22.9099 17.8941 23.125 17.3748 23.125 16.8334C23.125 16.2919 22.9099 15.7726 22.527 15.3897C22.1441 15.0068 21.6248 14.7917 21.0833 14.7917H12.9167ZM12.9167 22.9584C12.3752 22.9584 11.8559 23.1735 11.473 23.5563C11.0901 23.9392 10.875 24.4585 10.875 25C10.875 25.5415 11.0901 26.0608 11.473 26.4437C11.8559 26.8266 12.3752 27.0417 12.9167 27.0417H21.0833C21.6248 27.0417 22.1441 26.8266 22.527 26.4437C22.9099 26.0608 23.125 25.5415 23.125 25C23.125 24.4585 22.9099 23.9392 22.527 23.5563C22.1441 23.1735 21.6248 22.9584 21.0833 22.9584H12.9167ZM10.875 33.1667C10.875 32.6252 11.0901 32.1059 11.473 31.723C11.8559 31.3401 12.3752 31.125 12.9167 31.125H21.0833C21.6248 31.125 22.1441 31.3401 22.527 31.723C22.9099 32.1059 23.125 32.6252 23.125 33.1667C23.125 33.7082 22.9099 34.2275 22.527 34.6104C22.1441 34.9932 21.6248 35.2084 21.0833 35.2084H12.9167C12.3752 35.2084 11.8559 34.9932 11.473 34.6104C11.0901 34.2275 10.875 33.7082 10.875 33.1667Z" fill="#14BBB8"/>
<path fill-rule="evenodd" clip-rule="evenodd" d="M8.83301 6.625C7.20856 6.625 5.65064 7.27031 4.50198 8.41897C3.35332 9.56763 2.70801 11.1255 2.70801 12.75V37.25C2.70801 38.8745 3.35332 40.4324 4.50198 41.581C5.65064 42.7297 7.20856 43.375 8.83301 43.375H41.4997C43.1241 43.375 44.682 42.7297 45.8307 41.581C46.9794 40.4324 47.6247 38.8745 47.6247 37.25V12.75C47.6247 11.1255 46.9794 9.56763 45.8307 8.41897C44.682 7.27031 43.1241 6.625 41.4997 6.625H8.83301ZM41.4997 10.7083H8.83301C8.29152 10.7083 7.77222 10.9234 7.38933 11.3063C7.00644 11.6892 6.79134 12.2085 6.79134 12.75V37.25C6.79134 37.7915 7.00644 38.3108 7.38933 38.6937C7.77222 39.0766 8.29152 39.2917 8.83301 39.2917H41.4997C42.0412 39.2917 42.5605 39.0766 42.9433 38.6937C43.3262 38.3108 43.5413 37.7915 43.5413 37.25V12.75C43.5413 12.2085 43.3262 11.6892 42.9433 11.3063C42.5605 10.9234 42.0412 10.7083 41.4997 10.7083Z" fill="#14BBB8"/>
</svg>
