<svg width="71" height="70" viewBox="0 0 71 70" fill="none" xmlns="http://www.w3.org/2000/svg">
<path d="M59.1663 23.3333H50.8534C49.5222 21 47.688 18.9583 45.4693 17.5L50.2913 12.8625L46.1201 8.75L39.7005 15.0792C36.9497 14.421 34.0792 14.421 31.3284 15.0792L24.8793 8.75L20.708 12.8625L25.5005 17.5C23.2818 18.9583 21.4772 21.0292 20.1459 23.3333H11.833V29.1667H18.0159C17.8384 30.1292 17.7497 31.0917 17.7497 32.0833V35H11.833V40.8333H17.7497V43.75C17.7497 44.7417 17.8384 45.7042 18.0159 46.6667H11.833V52.5H20.1459C21.3125 54.4868 22.8649 56.2274 24.7142 57.6224C26.5635 59.0173 28.6736 60.0393 30.9237 60.6298C33.1739 61.2203 35.52 61.3678 37.828 61.0638C40.136 60.7599 42.3606 60.0104 44.3747 58.8583C47.0668 57.3417 49.3151 55.125 50.8534 52.5H59.1663V46.6667H52.9834C53.1609 45.7042 53.2497 44.7417 53.2497 43.75V40.8333H59.1663V35H53.2497V32.0833C53.2497 31.0917 53.1609 30.1292 52.9834 29.1667H59.1663V23.3333ZM47.333 43.75C47.333 46.8442 46.0863 49.8117 43.8671 51.9996C41.6479 54.1875 38.6381 55.4167 35.4997 55.4167C32.3613 55.4167 29.3514 54.1875 27.1322 51.9996C24.9131 49.8117 23.6663 46.8442 23.6663 43.75V32.0833C23.6663 28.9891 24.9131 26.0217 27.1322 23.8338C29.3514 21.6458 32.3613 20.4167 35.4997 20.4167C38.6381 20.4167 41.6479 21.6458 43.8671 23.8338C46.0863 26.0217 47.333 28.9891 47.333 32.0833V43.75ZM41.4163 29.1667V35H29.583V29.1667H41.4163ZM29.583 40.8333H41.4163V46.6667H29.583V40.8333Z" fill="#14BBB8"/>
</svg>
