<svg width="50" height="50" viewBox="0 0 50 50" fill="none" xmlns="http://www.w3.org/2000/svg">
<path d="M16.8337 6.625C13.0433 6.625 9.40813 8.13073 6.72792 10.8109C4.04772 13.4911 2.54199 17.1263 2.54199 20.9167C2.54199 24.7071 4.04772 28.3422 6.72792 31.0224C9.40813 33.7026 13.0433 35.2083 16.8337 35.2083H19.0182C18.8228 33.8542 18.8228 32.4791 19.0182 31.125H16.8337C14.1262 31.125 11.5297 30.0495 9.61528 28.135C7.70084 26.2206 6.62532 23.6241 6.62532 20.9167C6.62532 18.2092 7.70084 15.6127 9.61528 13.6983C11.5297 11.7839 14.1262 10.7083 16.8337 10.7083H33.167C34.6809 10.708 36.176 11.0445 37.5438 11.6932C38.9117 12.342 40.1181 13.287 41.0758 14.4595C42.0334 15.6321 42.7182 17.003 43.0806 18.473C43.443 19.9429 43.4739 21.475 43.1712 22.9583C44.3747 24.1372 45.3604 25.5196 46.0826 27.0417C47.116 24.8631 47.5814 22.4584 47.4354 20.0516C47.2894 17.6447 46.5369 15.314 45.2478 13.2762C43.9587 11.2384 42.175 9.55997 40.0627 8.39704C37.9504 7.2341 35.5783 6.6245 33.167 6.625H16.8337ZM22.9587 33.1667C22.959 31.575 23.3316 30.0055 24.0466 28.5835C24.7616 27.1614 25.7992 25.9263 27.0765 24.9767C28.3539 24.0271 29.8356 23.3893 31.4033 23.1143C32.971 22.8393 34.5813 22.9347 36.1056 23.3929C37.6299 23.8511 39.0259 24.6593 40.1822 25.7531C41.3385 26.8469 42.223 28.196 42.7651 29.6925C43.3071 31.189 43.4918 32.7915 43.3042 34.3721C43.1166 35.9527 42.5621 37.4675 41.6848 38.7955L46.8604 43.9732L43.9735 46.8601L38.7959 41.6845C37.2572 42.7015 35.4717 43.2826 33.6292 43.3662C31.7867 43.4497 29.9559 43.0324 28.3316 42.1588C26.7072 41.2851 25.3499 39.9877 24.4038 38.4044C23.4578 36.8211 22.9584 35.0111 22.9587 33.1667Z" fill="#14BBB8"/>
</svg>
